HIERARCHY
ROOT Hips
{
  OFFSET -153.954 102.532 184.687
  CHANNELS 6 Xposition Yposition Zposition Zrotation Xrotation Yrotation
  JOINT ToSpine
  {
    OFFSET -2.69724 7.43032 -0.144315
    CHANNELS 3 Zrotation Xrotation Yrotation
    JOINT Spine
    {
      OFFSET -0.0310711 10.7595 1.96963
      CHANNELS 3 Zrotation Xrotation Yrotation
      JOINT Spine1
      {
        OFFSET 19.9056 3.91189 0.764692
        CHANNELS 3 Zrotation Xrotation Yrotation
        JOINT Neck
        {
          OFFSET 25.9749 7.03908 -0.130764
          CHANNELS 3 Zrotation Xrotation Yrotation
          JOINT Head
          {
            OFFSET 9.52751 0.295786 -0.907742
            CHANNELS 3 Zrotation Xrotation Yrotation
            End Site
            {
              OFFSET 16.4037 0.713936 2.7358
            }
          }
        }
        JOINT LeftShoulder
        {
          OFFSET 17.7449 4.33886 11.7777
          CHANNELS 3 Zrotation Xrotation Yrotation
          JOINT LeftArm
          {
            OFFSET 0.911315 1.27913 9.80584
            CHANNELS 3 Zrotation Xrotation Yrotation
            JOINT LeftForeArm
            {
              OFFSET 28.6126 1.18197 -3.53199
              CHANNELS 3 Zrotation Xrotation Yrotation
              JOINT LeftHand
              {
                OFFSET 27.5088 0.0218783 0.327423
                CHANNELS 3 Zrotation Xrotation Yrotation
                End Site
                {
                  OFFSET 18.6038 -0.000155887 0.382096
                }
              }
            }
          }
        }
        JOINT RightShoulder
        {
          OFFSET 17.1009 2.89543 -12.2328
          CHANNELS 3 Zrotation Xrotation Yrotation
          JOINT RightArm
          {
            OFFSET 1.4228 0.178766 -10.211
            CHANNELS 3 Zrotation Xrotation Yrotation
            JOINT RightForeArm
            {
              OFFSET 28.733 1.87905 2.64907
              CHANNELS 3 Zrotation Xrotation Yrotation
              JOINT RightHand
              {
                OFFSET 27.4588 0.290562 -0.101845
                CHANNELS 3 Zrotation Xrotation Yrotation
                End Site
                {
                  OFFSET 17.8396 -0.255518 -0.000602873
                }
              }
            }
          }
        }
      }
    }
  }
  JOINT LeftUpLeg
  {
    OFFSET -5.61296 -2.22332 -10.2353
    CHANNELS 3 Zrotation Xrotation Yrotation
    JOINT LeftLeg
    {
      OFFSET 2.56703 -44.7417 -7.93097
      CHANNELS 3 Zrotation Xrotation Yrotation
      JOINT LeftFoot
      {
        OFFSET 3.16933 -46.5642 -3.96578
        CHANNELS 3 Zrotation Xrotation Yrotation
        JOINT LeftToeBase
        {
          OFFSET 0.346054 -6.02161 12.8035
          CHANNELS 3 Zrotation Xrotation Yrotation
          End Site
          {
            OFFSET 0.134235 -1.35082 5.13018
          }
        }
      }
    }
  }
  JOINT RightUpLeg
  {
    OFFSET -5.7928 -1.72406 10.6446
    CHANNELS 3 Zrotation Xrotation Yrotation
    JOINT RightLeg
    {
      OFFSET -2.57161 -44.7178 -7.85259
      CHANNELS 3 Zrotation Xrotation Yrotation
      JOINT RightFoot
      {
        OFFSET -3.10148 -46.5936 -4.03391
        CHANNELS 3 Zrotation Xrotation Yrotation
        JOINT RightToeBase
        {
          OFFSET -0.0828122 -6.13587 12.8035
          CHANNELS 3 Zrotation Xrotation Yrotation
          End Site
          {
            OFFSET -0.131328 -1.35082 5.13018
          }
        }
      }
    }
  }
}
MOTION
Frames:	10
Frame Time:	0.0333333
-239.843 101.586 289.13 -65.8451 -55.7221 -159.576 -70.1915 0 88.8779 96.8672 68.5113 -17.7272 0.0821567 16.0424 7.3173 -144.71 18.657 164.013 -138.105 54.2403 162.914 1.79546 -6.52085 -34.8757 -83.2939 41.9854 -106.266 -0.231704 38.9242 -11.8238 0.848614 0.0519466 5.84753 0.751766 -2.30089 47.6642 -80.1232 -35.9631 83.9672 -1.62814 -9.56279 15.377 7.82924 -0.483273 -8.03413 -59.8195 -4.90723 95.9582 3.34207 24.7156 -11.5938 8.88455 3.68474 -1.20022 -10.4643 -25.4247 0.684764 -41.431 -1.57764 77.8854 3.92985 57.0172 3.58763 -6.66066 0.499552 0.971855 -2.57476 -14.264 -6.54269 
-238.163 101.754 287.132 -66.9846 -54.472 -160.337 -70.1915 0 88.8779 98.9001 69.1862 -18.3522 -1.20363 17.0113 6.70476 -142.809 18.7722 164.098 -137.656 54.7258 164.265 1.82577 -6.39862 -34.9516 -95.1304 42.5011 -95.2883 -6.17419 45.8449 -3.89758 1.84044 0.0735942 5.10498 0.832132 -2.59079 46.7851 -77.3521 -37.3501 85.8921 -0.437721 -8.05326 16.9871 8.11729 -0.518223 -8.27059 -58.4166 -4.12736 96.4254 2.81722 24.9424 -10.8615 8.73855 4.15202 -1.17971 -9.61518 -23.42 0.635193 -44.1412 -0.110704 78.4417 4.67627 61.2433 1.80688 -7.14188 0.39927 1.03343 -2.51715 -14.0809 -7.57343 
-236.533 101.873 285.278 -67.4507 -53.3437 -161.144 -70.1915 0 88.8779 98.5193 69.8987 -17.9197 -2.56164 17.4677 7.43896 -141.787 18.86 165.884 -140.371 55.6573 167.446 2.01284 -5.75638 -35.9864 -100.563 41.1309 -88.1125 -10.527 48.1852 3.35516 3.00859 0.0279577 2.35554 0.848153 -2.69808 45.8007 -71.6979 -37.969 89.5128 -0.392244 -4.76083 18.0956 9.28599 -0.602839 -8.31542 -57.4925 -4.40196 96.1658 2.45587 23.7948 -9.51425 8.82973 4.78844 -1.19667 -8.64163 -21.1516 0.744439 -47.5493 0.488954 79.269 5.06102 63.24 0.534929 -6.91969 0.618843 1.00318 -2.69851 -14.7861 -8.13482 
-234.809 101.737 283.268 -67.1674 -51.7892 -161.933 -70.1915 0 88.8779 97.6958 70.6494 -17.1734 -4.464 18.1042 7.64657 -141.509 18.938 166.71 -142.156 56.0266 168.237 2.22363 -4.94969 -36.4063 -103.119 39.2807 -82.8738 -13.7038 48.4352 8.28532 2.83691 0.0670543 3.80411 0.806608 -2.61929 44.8735 -70.0305 -38.8973 91.0814 0.268541 -4.2588 18.8563 9.3816 -0.588698 -8.04464 -55.3364 -5.01981 95.8813 1.96161 23.7025 -7.5212 8.85595 5.35959 -1.20349 -7.85291 -19.3014 0.890631 -51.0629 0.558454 80.5041 4.87009 62.9403 0.10127 -6.94496 -0.0498086 1.01368 -3.39805 -17.559 -6.09971 
-233.249 101.755 281.429 -67.3374 -50.74 -162.614 -70.1915 0 88.8779 94.1649 71.6804 -12.8869 -4.19472 19.0597 7.33204 -141.203 19.5071 167.673 -142.877 56.7017 168.749 2.24091 -5.03986 -37.2473 -105.297 37.2844 -78.3962 -14.747 49.4014 10.7933 -0.91984 -0.0229028 8.00995 0.742422 -2.47958 43.5819 -68.5831 -39.9767 92.9236 1.01321 -3.32913 19.8419 9.14466 -0.546576 -7.69544 -54.1014 -5.13329 95.7408 1.44656 22.9154 -6.24934 8.72578 6.33974 -1.18523 -7.14921 -17.5386 0.585622 -56.0117 0.517918 81.1191 4.31477 59.8373 1.8909 -6.85681 -1.06108 1.01479 -3.77681 -19.3333 -4.3639 
-231.529 101.666 279.528 -67.6932 -49.1834 -163.564 -70.1915 0 88.8779 92.6065 72.5537 -9.70226 -4.5761 20.4166 5.94749 -139.946 19.528 167.408 -142.141 56.6515 168.15 2.3286 -4.58121 -36.7311 -108.187 35.7751 -73.8569 -14.7629 50.9732 11.9166 0.647355 0.0446043 5.83657 0.744639 -2.49266 43.4857 -66.8644 -40.0708 94.8254 1.87298 -3.06074 20.7586 8.93576 -0.514151 -7.43543 -52.754 -5.35338 95.4139 1.20207 22.1601 -4.39909 8.8414 7.10024 -1.20876 -6.41492 -15.7367 0.409072 -60.8811 0.511673 82.269 3.62878 55.2494 3.89792 -6.84224 -1.14974 1.0142 -4.50507 -22.1672 -5.17232 
-229.536 101.496 277.232 -67.4851 -47.5913 -163.926 -70.1915 0 88.8779 91.8014 73.4816 -7.546 -5.00933 21.5233 5.7035 -140.318 19.7045 168.812 -142.917 56.6591 167.878 2.51752 -3.95641 -37.3875 -109.331 34.038 -71.316 -14.163 50.2062 11.7384 -0.420883 0.00726753 4.54015 0.779959 -2.66777 42.6257 -63.7805 -39.5614 98.0535 2.35979 -1.89519 21.7596 8.62558 -0.471707 -7.10526 -50.568 -5.47773 94.828 1.18002 21.7563 -2.63166 8.93509 8.10001 -1.23091 -5.72787 -14.0889 0.548184 -64.5325 0.673873 83.7558 3.06503 50.5351 5.35833 -6.88722 -2.12147 1.03035 -4.65582 -23.1236 -4.03103 
-227.931 101.474 275.299 -67.3949 -46.2814 -164.373 -70.1915 0 88.8779 86.0053 74.1052 0.0859727 -3.90041 22.7067 4.22457 -140.454 19.8747 169.211 -144.103 56.9348 167.83 2.54358 -3.58669 -36.2842 -109.93 34.1491 -68.0892 -13.0048 45.6677 10.7928 -2.73433 -0.119249 7.8517 0.716429 -2.42107 43.0302 -62.2903 -38.6543 99.5977 3.18057 -1.73803 22.9382 8.14234 -0.426907 -6.85957 -49.5854 -5.63663 94.2105 1.22256 19.9769 -1.0587 8.75813 9.48462 -1.20251 -5.07545 -12.4889 0.474696 -68.3024 1.21666 85.9882 2.62015 45.529 6.67738 -7.10092 -3.74228 1.06806 -3.85637 -19.6406 -4.52942 
-226.106 101.311 272.576 -67.0383 -45.6123 -164.102 -70.1915 0 88.8779 85.6578 74.4448 0.992053 -4.23477 23.0883 4.60039 -142.186 20.0052 170.251 -146.658 57.2895 168.512 2.56547 -3.23691 -35.3032 -109.987 34.9314 -65.638 -11.7919 41.6728 9.16929 -3.41239 -0.207279 9.76592 0.727353 -2.47354 42.778 -61.1015 -37.9013 101.753 3.84684 -2.09158 24.2325 8.15022 -0.430016 -6.89988 -47.8196 -5.22684 93.6541 1.2399 18.8178 -0.345635 8.53954 10.7832 -1.16091 -4.3014 -10.5808 0.141707 -70.7885 2.78006 88.2441 2.32173 41.3121 7.50393 -7.0374 -4.61201 1.07126 -3.51086 -17.8868 -7.31116 
-224.1 100.947 269.528 -66.9081 -45.2544 -163.997 -70.1915 0 88.8779 87.7916 74.8074 -1.33441 -4.71372 23.1299 5.87932 -143.219 20.3987 172.012 -148.863 58.0926 171.69 2.62422 -3.01954 -35.4409 -110.464 34.994 -64.4371 -11.2603 42.5616 8.31641 -3.17091 -0.10417 6.30403 0.741487 -2.56371 42.1097 -61.8656 -37.5259 102.87 4.64049 -3.54806 26.0012 8.45837 -0.382036 -5.9434 -46.0224 -5.0182 92.9381 1.51692 17.8608 0.251188 8.03376 11.4426 -1.05196 -2.58834 -6.38454 0.0182018 -72.4581 3.99598 89.3071 2.21186 37.6811 9.12805 -6.81016 -4.19168 1.04753 -2.34687 -13.2325 -4.9808 
